<?xml version="1.0" encoding="utf-8"?>
<svg id="Layer_1" data-name="Layer 1" viewBox="0 -5.401 1000 1145.181" xmlns="http://www.w3.org/2000/svg" xmlns:bx="https://boxy-svg.com">
  <defs>
    <style>.cls-1{fill:#000000;}</style>
  </defs>
  <rect x="1226.419" y="110.069" width="587.907" height="773.483" style="stroke: rgb(0, 0, 0); fill: rgb(39, 39, 39);"/>
  <path class="cls-1" d="M 500.993 250.924 C 499.716 251.464 498.503 252.148 497.378 252.961 C 494.654 254.75 492.327 257.532 489.356 262.6 C 487.97 264.935 487.277 265.582 485.445 266.277 C 477.57 269.209 464.2 279.593 456.327 288.884 C 438.895 309.507 431.816 335.146 437.364 357.605 C 438.639 362.068 440.229 366.435 442.12 370.673 C 442.467 371.418 438.504 375.244 436.276 376.387 C 433.116 378.007 431.77 378.563 427.956 380.412 C 425.031 381.815 422.241 383.486 419.622 385.405 C 415.458 388.61 413.348 392.218 409.303 399.318 C 402.87 410.029 398.883 422.036 397.628 434.478 C 397.186 438.419 396.995 442.384 397.06 446.348 C 397.111 451.914 397.358 457.081 397.705 458.522 C 398.002 459.863 398.547 462.298 398.844 463.888 L 399.439 466.77 L 396.715 469.057 C 386.662 477.652 372.104 494.049 364.825 504.981 C 360.369 511.688 355.317 522.073 352.595 530.073 C 350.763 535.589 349.625 552.184 350.715 558.395 C 353.192 572.507 362.304 586.371 374.39 594.32 C 384.939 601.276 394.496 604.903 410.394 607.935 C 418.021 609.425 441.643 609.574 448.526 608.183 C 468.237 604.258 482.449 599.239 500.525 589.947 C 514.984 582.495 525.482 575.935 543.161 563.265 C 546.726 560.731 549.847 558.644 550.144 558.644 C 550.441 558.644 552.274 560.234 554.304 562.172 C 562.526 570.022 572.083 574.892 584.168 577.277 C 590.705 578.569 603.432 578.122 608.979 576.432 C 624.677 571.613 634.631 562.47 640.721 547.265 C 647.206 531.216 646.76 512.98 639.627 499.713 C 634.922 490.869 628.435 484.857 618.975 480.385 C 611.1 476.658 607.435 475.962 596.838 475.962 C 587.23 475.962 584.407 476.409 577.178 479.142 C 567.223 482.87 557.121 490.472 552.07 497.975 C 545.436 507.961 541.622 518.893 541.13 529.576 C 540.882 534.695 540.733 535.639 539.792 536.631 C 539.197 537.228 535.038 540.408 530.532 543.637 C 495.818 568.432 469.919 580.855 443.87 585.227 C 436.887 586.421 421.782 586.321 415.344 585.029 C 401.874 582.346 395.634 580.06 387.562 574.992 C 384.045 572.755 378.201 566.793 376.268 563.513 C 374.338 560.234 372.505 554.52 372.505 552.084 C 372.504 549.55 373.742 540.656 374.385 538.52 C 375.624 534.446 382.753 520.235 385.971 515.464 C 390.775 508.458 400.53 498.621 407.71 493.702 L 411.129 491.366 L 412.316 492.36 C 430.344 506.918 441.19 511.887 459.91 514.172 C 478.084 516.408 493.932 513.874 509.135 506.271 C 524.635 498.57 538.599 484.36 544.343 470.447 C 545.877 466.77 546.027 465.975 546.224 459.913 C 546.372 454.248 546.273 452.808 545.381 449.876 C 543.747 444.509 540.726 439.641 536.168 435.169 C 527.254 426.323 519.677 423.938 500.263 423.839 C 492.192 423.789 488.279 423.988 484.169 424.634 C 476.21 426.055 468.352 427.997 460.646 430.448 C 455.099 432.336 442.274 438.498 438.361 441.131 C 434.796 443.566 419.692 452.311 419.048 452.311 C 418.305 452.311 418.454 450.224 419.543 442.523 C 421.226 430.398 426.92 415.342 433.605 405.107 C 436.179 401.182 437.516 399.641 440.191 397.654 C 448.312 391.641 454.601 389.454 465.595 388.709 C 488.92 387.219 500.31 385.231 509.769 381.008 C 517.202 377.571 524.327 373.497 531.064 368.834 C 536.56 364.908 545.226 357.058 549.186 352.437 C 550.97 350.399 552.9 348.114 553.545 347.32 C 554.535 346.226 555.179 345.978 556.912 345.978 C 559.636 345.978 564.043 344.438 566.816 342.549 C 572.915 338.213 575.871 330.662 574.342 323.319 C 573.997 321.6 573.481 319.918 572.807 318.301 C 571.271 315.221 567.656 311.792 564.041 309.954 C 560.772 308.314 560.227 308.215 555.968 308.215 C 550.025 308.215 546.906 309.358 542.944 312.984 C 538.784 316.712 537.15 320.487 537.201 325.853 C 537.235 327.881 537.385 329.905 537.647 331.916 C 537.943 333.854 537.845 334.251 536.211 336.486 C 533.339 340.412 525.96 347.121 520.414 350.846 C 510.313 357.47 499.108 362.216 487.333 364.859 C 481.243 366.151 470.892 366.697 466.286 365.902 C 462.82 365.306 462.77 365.306 461.235 362.722 C 458.263 357.754 457.074 353.431 456.429 344.985 C 455.835 337.977 458.162 326.598 461.48 319.891 C 465.49 311.792 471.927 302.053 476.384 297.183 C 480.692 292.562 492.23 284.364 494.508 284.364 C 494.905 284.364 496.639 285.258 498.272 286.351 C 503.225 289.531 507.979 289.531 513.376 286.401 C 517.884 283.768 520.31 280.786 522.043 275.717 C 525.255 266.306 520.729 255.996 511.641 252.017 C 509.412 251.023 502.973 250.328 500.993 250.924 Z M 510.568 449.031 C 510.568 449.031 518.03 449.861 521.264 453.95 C 522.601 455.639 522.799 456.335 522.948 459.565 C 523.246 465.23 521.81 468.31 516.165 474.324 C 510.668 480.186 498.486 486.398 486.353 489.528 C 476.696 492.062 462.286 492.161 453.717 489.776 C 445.644 487.54 441.683 485.354 436.582 480.335 C 434.531 478.317 433.526 477.209 433.377 475.679 C 433.09 472.828 436.065 470.353 437.661 469.081 C 448.917 460.137 457.825 456.584 457.825 456.584 C 464.689 453.851 474.484 450.035 488.251 448.341 C 488.251 448.336 497.056 447.257 510.568 449.031 Z M 602.089 498.57 C 607.635 500.011 610.36 501.651 614.965 506.222 C 620.561 511.738 622.94 516.855 623.435 524.359 C 624.377 538.52 617.841 548.557 604.322 553.824 C 601.945 554.768 600.558 554.917 594.863 554.917 C 588.721 554.917 587.88 554.818 584.661 553.526 C 569.507 547.563 561.978 532.955 566.731 518.645 C 568.563 513.079 573.069 506.718 577.328 503.638 C 585.103 498.075 593.571 496.335 602.089 498.57 Z M 492.735 455.789" style="fill: rgb(49, 48, 48);" transform="matrix(0.999931, 0.011774, -0.011774, 0.999931, 7.367936, -6.703596)" bx:origin="0.755 1.037"/>
  <path class="cls-1" d="M 653.303 589.251 C 652.609 589.35 650.975 589.797 649.588 590.195 C 648.202 590.593 645.429 591.387 643.398 591.984 C 641.368 592.58 638.248 593.574 636.466 594.22 C 626.71 597.747 615.468 600.878 598.333 604.903 C 587.686 607.437 579.069 609.126 566.391 611.313 C 553.564 613.499 536.083 615.487 523.059 616.282 C 482.996 618.618 441.246 617.822 407.423 614.096 C 394.399 612.654 372.361 608.878 363.594 606.592 C 362.109 606.195 357.107 604.953 352.451 603.81 C 347.797 602.667 339.03 600.082 332.938 598.095 C 326.65 596.008 321.053 594.418 319.914 594.418 C 315.061 594.418 310.604 598.84 310.605 603.561 C 310.605 605.847 313.824 616.233 320.214 634.419 C 322.245 640.233 322.988 642.319 325.168 648.083 C 325.564 649.028 327.099 652.853 328.685 656.53 C 333.291 667.561 337.65 678.941 344.04 696.529 C 346.418 703.089 348.646 709.25 348.993 710.194 C 349.339 711.139 350.479 714.268 351.47 717.15 C 352.46 720.032 353.6 723.163 353.946 724.107 C 354.64 725.995 358.058 735.435 362.119 746.962 C 363.507 750.937 364.943 754.963 365.34 755.907 C 365.735 756.851 367.519 761.77 369.351 766.839 C 373.76 779.161 377.524 788.9 379.951 794.416 C 382.181 799.533 383.915 803.906 383.915 804.553 C 383.915 806.142 386.292 810.365 388.174 812.154 C 391.195 814.986 392.928 815.434 404.913 816.278 C 423.978 817.57 460.478 817.223 503.018 815.235 C 513.913 814.688 531.443 814.39 550.114 814.34 L 579.877 814.241 L 581.413 813.148 C 583.592 811.558 584.582 809.968 586.463 804.851 C 587.355 802.366 588.395 799.583 588.74 798.639 C 590.375 794.267 593.147 786.514 594.633 781.993 C 600.079 765.596 604.387 753.373 607.852 744.231 C 609.239 740.652 610.873 736.429 611.467 734.789 C 612.507 732.107 615.081 725.448 619.884 713.176 C 620.775 710.84 623.647 703.585 626.221 697.026 C 630.876 685.3 632.906 680.034 635.926 672.182 C 636.768 669.996 638.452 665.524 639.739 662.244 C 641.026 658.964 642.759 654.244 643.651 651.809 C 647.067 642.419 656.524 618.469 660.832 608.381 C 664.05 600.828 664.298 600.082 664.099 597.399 C 663.702 591.835 658.997 588.308 653.303 589.251 Z M 528.015 647.189 C 531.744 647.999 536.513 650.583 538.83 654.07 C 540.713 657.002 543.754 666.767 544.349 671.039 C 545.439 679.288 546.043 682.765 550.104 685.151 C 552.184 686.393 554.204 686.706 557.622 686.458 C 564.159 685.96 564.882 683.322 566.416 678.349 C 566.813 675.914 569.218 667.661 570.951 662.343 C 573.082 655.685 577.042 650.866 582.39 648.431 C 584.172 647.636 585.758 647.387 589.175 647.387 C 593.038 647.338 594.31 647.701 596.886 648.665 C 600.932 650.185 602.399 652.604 604.923 656.43 C 609.778 663.884 610.917 668.903 610.472 680.282 C 610.175 687.933 610.027 688.579 608.492 692.206 C 607.601 694.293 605.076 700.256 602.898 705.474 C 596.411 720.777 583.093 754.615 578.289 768.081 C 577.398 770.515 576.11 773.994 575.418 775.782 C 574.724 777.571 573.04 781.993 571.605 785.62 C 570.169 789.247 568.783 792.328 568.436 792.528 C 568.09 792.726 548.974 792.975 525.797 793.024 C 502.62 793.074 473.055 793.322 460.03 793.62 C 435.913 794.167 406.546 793.67 404.763 792.677 C 403.475 792.03 398.72 780.75 390.002 757.894 C 389.358 756.106 388.517 753.869 388.119 752.925 C 386.287 748.254 384.602 743.784 380.888 733.795 C 378.659 727.784 376.479 721.871 375.984 720.628 C 375.488 719.386 374.102 715.709 372.863 712.43 C 371.624 709.151 370.387 705.921 370.139 705.226 C 369.891 704.53 369.148 702.641 368.554 701.002 C 367.96 699.361 367.266 697.572 367.018 697.026 C 366.77 696.48 365.136 692.256 363.304 687.585 L 360.035 679.139 L 360.084 673.822 C 360.133 670.89 360.479 667.263 360.875 665.723 C 362.508 659.511 366.867 653.449 371.126 651.412 C 374.741 649.673 379.663 648.804 383.922 649.002 C 387.835 649.151 389.325 649.5 392.667 651.163 C 394.51 652.426 396.204 653.892 397.719 655.536 C 400.196 658.617 402.226 663.537 403.068 668.307 C 404.258 675.313 406.784 679.388 411.29 681.624 C 414.113 682.965 419.215 683.71 422.187 683.163 C 425.802 682.467 430.902 677.649 431.942 673.921 C 432.189 672.978 432.634 670.095 432.931 667.512 C 433.625 661.449 435.505 656.853 439.022 653.523 C 442.537 650.195 446.162 647.765 451.095 647.84 C 457.894 647.84 462.248 649.226 466.606 653.847 C 469.677 657.076 471.029 660.962 472.105 665.325 C 473.145 672.282 474.086 676.506 474.977 678.345 C 477.504 683.263 487.656 686.393 493.103 683.908 C 497.51 681.922 499.342 678.543 500.035 671.188 C 500.925 662.095 505.729 652.902 511.621 649.127 C 515.633 646.543 523.012 645.698 528.015 647.189 Z" style="fill: rgb(49, 48, 48);" transform="matrix(0.999931, 0.011774, -0.011774, 0.999931, 7.367597, -6.702599)" bx:origin="0.742 0.146"/>
  <path class="cls-1" d="M-139.53,822.88" transform="translate(-664 -397.26)"/>
  <path class="cls-1" d="M-147.15,921.93" transform="translate(-664 -397.26)"/>
  <path class="cls-1" d="M-265,1193.72" transform="translate(-664 -397.26)"/>
</svg>