<svg id="Layer_1" data-name="Layer 1" xmlns="http://www.w3.org/2000/svg" viewBox="0 0 713.9 1139.78"><defs><style>.cls-1{fill:#000000;}</style></defs><path class="cls-1" d="M1048.5,397.7a37.22,37.22,0,0,0-7.3,4.1c-5.5,3.6-10.2,9.2-16.2,19.4-2.8,4.7-4.2,6-7.9,7.4-15.9,5.9-42.9,26.8-58.8,45.5-35.2,41.5-49.5,93.1-38.3,138.3a197.12,197.12,0,0,0,9.6,26.3c.7,1.5-7.3,9.2-11.8,11.5-6.38,3.26-9.1,4.38-16.8,8.1a106.1,106.1,0,0,0-16.83,10.05c-8.41,6.45-12.67,13.71-20.84,28a170.28,170.28,0,0,0-23.58,70.76A185.92,185.92,0,0,0,838.6,791c.1,11.2.6,21.6,1.3,24.5.6,2.7,1.7,7.6,2.3,10.8l1.2,5.8-5.5,4.6C817.6,854,788.2,887,773.5,909c-9,13.5-19.2,34.4-24.7,50.5-3.7,11.1-6,44.5-3.8,57,5,28.4,23.4,56.3,47.8,72.3,21.3,14,40.6,21.3,72.7,27.4,15.4,3,63.1,3.3,77,.5,39.8-7.9,68.5-18,105-36.7,29.2-15,50.4-28.2,86.1-53.7,7.2-5.1,13.5-9.3,14.1-9.3s4.3,3.2,8.4,7.1c16.6,15.8,35.9,25.6,60.3,30.4,13.2,2.6,38.9,1.7,50.1-1.7,31.7-9.7,51.8-28.1,64.1-58.7,13.1-32.3,12.2-69-2.2-95.7-9.5-17.8-22.6-29.9-41.7-38.9-15.9-7.5-23.3-8.9-44.7-8.9-19.4,0-25.1.9-39.7,6.4-20.1,7.5-40.5,22.8-50.7,37.9-13.4,20.1-21.1,42.1-22.1,63.6-.5,10.3-.8,12.2-2.7,14.2-1.2,1.2-9.6,7.6-18.7,14.1-70.1,49.9-122.4,74.9-175,83.7-14.1,2.4-44.6,2.2-57.6-.4-27.2-5.4-39.8-10-56.1-20.2-7.1-4.5-18.9-16.5-22.8-23.1s-7.6-18.1-7.6-23c0-5.1,2.5-23,3.8-27.3,2.5-8.2,16.9-36.8,23.4-46.4,9.7-14.1,29.4-33.9,43.9-43.8l6.9-4.7,2.4,2c36.4,29.3,58.3,39.3,96.1,43.9,36.7,4.5,68.7-.6,99.4-15.9,31.3-15.5,59.5-44.1,71.1-72.1,3.1-7.4,3.4-9,3.8-21.2.3-11.4.1-14.3-1.7-20.2-3.3-10.8-9.4-20.6-18.6-29.6-18-17.8-33.3-22.6-72.5-22.8-16.3-.1-24.2.3-32.5,1.6A373.81,373.81,0,0,0,967,759c-11.2,3.8-37.1,16.2-45,21.5-7.2,4.9-37.7,22.5-39,22.5-1.5,0-1.2-4.2,1-19.7,3.4-24.4,14.9-54.7,28.4-75.3,5.2-7.9,7.9-11,13.3-15,16.4-12.1,29.1-16.5,51.3-18,47.1-3,70.1-7,89.2-15.5a288,288,0,0,0,43-24.5c11.1-7.9,28.6-23.7,36.6-33,3.6-4.1,7.5-8.7,8.8-10.3,2-2.2,3.3-2.7,6.8-2.7,5.5,0,14.4-3.1,20-6.9a37.93,37.93,0,0,0,15.2-38.7,53.68,53.68,0,0,0-3.1-10.1c-3.1-6.2-10.4-13.1-17.7-16.8-6.6-3.3-7.7-3.5-16.3-3.5-12,0-18.3,2.3-26.3,9.6-8.4,7.5-11.7,15.1-11.6,25.9a108.26,108.26,0,0,0,.9,12.2c.6,3.9.4,4.7-2.9,9.2-5.8,7.9-20.7,21.4-31.9,28.9a203.24,203.24,0,0,1-66.8,28.2c-12.3,2.6-33.2,3.7-42.5,2.1-7-1.2-7.1-1.2-10.2-6.4-6-10-8.4-18.7-9.7-35.7-1.2-14.1,3.5-37,10.2-50.5,8.1-16.3,21.1-35.9,30.1-45.7,8.7-9.3,32-25.8,36.6-25.8.8,0,4.3,1.8,7.6,4,10,6.4,19.6,6.4,30.5.1,9.1-5.3,14-11.3,17.5-21.5a38.45,38.45,0,0,0-21-47.7C1065.5,397.9,1052.5,396.5,1048.5,397.7Zm19.3,398.7s15.07,1.67,21.6,9.9c2.7,3.4,3.1,4.8,3.4,11.3.6,11.4-2.3,17.6-13.7,29.7-11.1,11.8-35.7,24.3-60.2,30.6-19.5,5.1-48.6,5.3-65.9.5-16.3-4.5-24.3-8.9-34.6-19-4.14-4.06-6.17-6.29-6.47-9.37-.58-5.74,5.43-10.72,8.65-13.28,22.73-18,40.72-25.15,40.72-25.15,13.86-5.5,33.64-13.18,61.44-16.59C1022.74,795,1040.52,792.83,1067.8,796.4Zm184.8,99.7c11.2,2.9,16.7,6.2,26,15.4,11.3,11.1,16.1,21.4,17.1,36.5,1.9,28.5-11.3,48.7-38.6,59.3-4.8,1.9-7.6,2.2-19.1,2.2-12.4,0-14.1-.2-20.6-2.8-30.6-12-45.8-41.4-36.2-70.2,3.7-11.2,12.8-24,21.4-30.2C1218.3,895.1,1235.4,891.6,1252.6,896.1ZM1031.79,810" transform="translate(-664 -397.26)"/><path class="cls-1" d="M1356,1078.6c-1.4.2-4.7,1.1-7.5,1.9s-8.4,2.4-12.5,3.6-10.4,3.2-14,4.5c-19.7,7.1-42.4,13.4-77,21.5-21.5,5.1-38.9,8.5-64.5,12.9-25.9,4.4-61.2,8.4-87.5,10-80.9,4.7-165.2,3.1-233.5-4.4-26.3-2.9-70.8-10.5-88.5-15.1-3-.8-13.1-3.3-22.5-5.6s-27.1-7.5-39.4-11.5c-12.7-4.2-24-7.4-26.3-7.4-9.8,0-18.8,8.9-18.8,18.4,0,4.6,6.5,25.5,19.4,62.1,4.1,11.7,5.6,15.9,10,27.5.8,1.9,3.9,9.6,7.1,17,9.3,22.2,18.1,45.1,31,80.5,4.8,13.2,9.3,25.6,10,27.5s3,8.2,5,14,4.3,12.1,5,14c1.4,3.8,8.3,22.8,16.5,46,2.8,8,5.7,16.1,6.5,18s4.4,11.8,8.1,22c8.9,24.8,16.5,44.4,21.4,55.5,4.5,10.3,8,19.1,8,20.4,0,3.2,4.8,11.7,8.6,15.3,6.1,5.7,9.6,6.6,33.8,8.3,38.5,2.6,112.2,1.9,198.1-2.1,22-1.1,57.4-1.7,95.1-1.8l60.1-.2,3.1-2.2c4.4-3.2,6.4-6.4,10.2-16.7,1.8-5,3.9-10.6,4.6-12.5,3.3-8.8,8.9-24.4,11.9-33.5,11-33,19.7-57.6,26.7-76,2.8-7.2,6.1-15.7,7.3-19,2.1-5.4,7.3-18.8,17-43.5,1.8-4.7,7.6-19.3,12.8-32.5,9.4-23.6,13.5-34.2,19.6-50,1.7-4.4,5.1-13.4,7.7-20s6.1-16.1,7.9-21c6.9-18.9,26-67.1,34.7-87.4,6.5-15.2,7-16.7,6.6-22.1C1377,1083.8,1367.5,1076.7,1356,1078.6Zm-253,116.6c7.53,1.63,17.16,6.83,21.84,13.85,3.8,5.9,9.94,25.55,11.14,34.15,2.2,16.6,3.42,23.6,11.62,28.4,4.2,2.5,8.28,3.13,15.18,2.63,13.2-1,14.66-6.31,17.76-16.32.8-4.9,5.66-21.51,9.16-32.21,4.3-13.4,12.3-23.1,23.1-28,3.6-1.6,6.8-2.1,13.7-2.1,7.8-.1,10.37.63,15.57,2.57,8.17,3.06,11.13,7.93,16.23,15.63,9.8,15,12.1,25.1,11.2,48-.6,15.4-.9,16.7-4,24-1.8,4.2-6.9,16.2-11.3,26.7-13.1,30.8-40,98.9-49.7,126-1.8,4.9-4.4,11.9-5.8,15.5s-4.8,12.5-7.7,19.8-5.7,13.5-6.4,13.9-39.3.9-86.1,1-106.5.6-132.8,1.2c-48.7,1.1-108,.1-111.6-1.9-2.6-1.3-12.2-24-29.8-70-1.3-3.6-3-8.1-3.8-10-3.7-9.4-7.1-18.4-14.6-38.5-4.5-12.1-8.9-24-9.9-26.5s-3.8-9.9-6.3-16.5-5-13.1-5.5-14.5-2-5.2-3.2-8.5-2.6-6.9-3.1-8-3.8-9.6-7.5-19l-6.6-17,.1-10.7c.1-5.9.8-13.2,1.6-16.3,3.3-12.5,12.1-24.7,20.7-28.8,7.3-3.5,17.24-5.25,25.84-4.85,7.9.3,10.91,1,17.66,4.35a59.88,59.88,0,0,1,10.2,8.8c5,6.2,9.1,16.1,10.8,25.7,2.4,14.1,7.5,22.3,16.6,26.8,5.7,2.7,16,4.2,22,3.1,7.3-1.4,17.6-11.1,19.7-18.6.5-1.9,1.4-7.7,2-12.9,1.4-12.2,5.2-21.45,12.3-28.15s14.42-11.59,24.38-11.44c13.73,0,22.52,2.79,31.32,12.09,6.2,6.5,8.93,14.32,11.1,23.1,2.1,14,4,22.5,5.8,26.2,5.1,9.9,25.6,16.2,36.6,11.2,8.9-4,12.6-10.8,14-25.6,1.8-18.3,11.5-36.8,23.4-44.4C1078,1193.9,1092.9,1192.2,1103,1195.2Z" transform="translate(-664 -397.26)"/><path class="cls-1" d="M-139.53,822.88" transform="translate(-664 -397.26)"/><path class="cls-1" d="M-147.15,921.93" transform="translate(-664 -397.26)"/><path class="cls-1" d="M-265,1193.72" transform="translate(-664 -397.26)"/></svg>