<?xml version="1.0" encoding="utf-8"?>
<svg id="Layer_1" data-name="Layer 1" viewBox="0 0 1000 1139.78" xmlns="http://www.w3.org/2000/svg" xmlns:bx="https://boxy-svg.com">
  <defs>
    <style>.cls-1{fill:#000000;}</style>
  </defs>
  <rect x="1225.123" y="226.787" width="587.907" height="773.483" style="stroke: rgb(0, 0, 0); fill: rgb(248, 205, 143);"/>
  <path class="cls-1" d="M 508.619 266.095 C 507.342 266.635 506.129 267.319 505.004 268.132 C 502.28 269.921 499.953 272.703 496.982 277.771 C 495.596 280.106 494.903 280.753 493.071 281.448 C 485.196 284.38 471.826 294.764 463.953 304.055 C 446.521 324.678 439.442 350.317 444.99 372.776 C 446.265 377.239 447.855 381.606 449.746 385.844 C 450.093 386.589 446.13 390.415 443.902 391.558 C 440.742 393.178 439.396 393.734 435.582 395.583 C 432.657 396.986 429.867 398.657 427.248 400.576 C 423.084 403.781 420.974 407.389 416.929 414.489 C 410.496 425.2 406.509 437.207 405.254 449.649 C 404.812 453.59 404.621 457.555 404.686 461.519 C 404.737 467.085 404.984 472.252 405.331 473.693 C 405.628 475.034 406.173 477.469 406.47 479.059 L 407.065 481.941 L 404.341 484.228 C 394.288 492.823 379.73 509.22 372.451 520.152 C 367.995 526.859 362.943 537.244 360.221 545.244 C 358.389 550.76 357.251 567.355 358.341 573.566 C 360.818 587.678 369.93 601.542 382.016 609.491 C 392.565 616.447 402.122 620.074 418.02 623.106 C 425.647 624.596 449.269 624.745 456.152 623.354 C 475.863 619.429 490.075 614.41 508.151 605.118 C 522.61 597.666 533.108 591.106 550.787 578.436 C 554.352 575.902 557.473 573.815 557.77 573.815 C 558.067 573.815 559.9 575.405 561.93 577.343 C 570.152 585.193 579.709 590.063 591.794 592.448 C 598.331 593.74 611.058 593.293 616.605 591.603 C 632.303 586.784 642.257 577.641 648.347 562.436 C 654.832 546.387 654.386 528.151 647.253 514.884 C 642.548 506.04 636.061 500.028 626.601 495.556 C 618.726 491.829 615.061 491.133 604.464 491.133 C 594.856 491.133 592.033 491.58 584.804 494.313 C 574.849 498.041 564.747 505.643 559.696 513.146 C 553.062 523.132 549.248 534.064 548.756 544.747 C 548.508 549.866 548.359 550.81 547.418 551.802 C 546.823 552.399 542.664 555.579 538.158 558.808 C 503.444 583.603 477.545 596.026 451.496 600.398 C 444.513 601.592 429.408 601.492 422.97 600.2 C 409.5 597.517 403.26 595.231 395.188 590.163 C 391.671 587.926 385.827 581.964 383.894 578.684 C 381.964 575.405 380.131 569.691 380.131 567.255 C 380.13 564.721 381.368 555.827 382.011 553.691 C 383.25 549.617 390.379 535.406 393.597 530.635 C 398.401 523.629 408.156 513.792 415.336 508.873 L 418.755 506.537 L 419.942 507.531 C 437.97 522.089 448.816 527.058 467.536 529.343 C 485.71 531.579 501.558 529.045 516.761 521.442 C 532.261 513.741 546.225 499.531 551.969 485.618 C 553.503 481.941 553.653 481.146 553.85 475.084 C 553.998 469.419 553.899 467.979 553.007 465.047 C 551.373 459.68 548.352 454.812 543.794 450.34 C 534.88 441.494 527.303 439.109 507.889 439.01 C 499.818 438.96 495.905 439.159 491.795 439.805 C 483.836 441.226 475.978 443.168 468.272 445.619 C 462.725 447.507 449.9 453.669 445.987 456.302 C 442.422 458.737 427.318 467.482 426.674 467.482 C 425.931 467.482 426.08 465.395 427.169 457.694 C 428.852 445.569 434.546 430.513 441.231 420.278 C 443.805 416.353 445.142 414.812 447.817 412.825 C 455.938 406.812 462.227 404.625 473.221 403.88 C 496.546 402.39 507.936 400.402 517.395 396.179 C 524.828 392.742 531.953 388.668 538.69 384.005 C 544.186 380.079 552.852 372.229 556.812 367.608 C 558.596 365.57 560.526 363.285 561.171 362.491 C 562.161 361.397 562.805 361.149 564.538 361.149 C 567.262 361.149 571.669 359.609 574.442 357.72 C 580.541 353.384 583.497 345.833 581.968 338.49 C 581.623 336.771 581.107 335.089 580.433 333.472 C 578.897 330.392 575.282 326.963 571.667 325.125 C 568.398 323.485 567.853 323.386 563.594 323.386 C 557.651 323.386 554.532 324.529 550.57 328.155 C 546.41 331.883 544.776 335.658 544.827 341.024 C 544.861 343.052 545.011 345.076 545.273 347.087 C 545.569 349.025 545.471 349.422 543.837 351.657 C 540.965 355.583 533.586 362.292 528.04 366.017 C 517.939 372.641 506.734 377.387 494.959 380.03 C 488.869 381.322 478.518 381.868 473.912 381.073 C 470.446 380.477 470.396 380.477 468.861 377.893 C 465.889 372.925 464.7 368.602 464.055 360.156 C 463.461 353.148 465.788 341.769 469.106 335.062 C 473.116 326.963 479.553 317.224 484.01 312.354 C 488.318 307.733 499.856 299.535 502.134 299.535 C 502.531 299.535 504.265 300.429 505.898 301.522 C 510.851 304.702 515.605 304.702 521.002 301.572 C 525.51 298.939 527.936 295.957 529.669 290.888 C 532.881 281.477 528.355 271.167 519.267 267.188 C 517.038 266.194 510.599 265.499 508.619 266.095 Z M 518.194 464.202 C 518.194 464.202 525.656 465.032 528.89 469.121 C 530.227 470.81 530.425 471.506 530.574 474.736 C 530.872 480.401 529.436 483.481 523.791 489.495 C 518.294 495.357 506.112 501.569 493.979 504.699 C 484.322 507.233 469.912 507.332 461.343 504.947 C 453.27 502.711 449.309 500.525 444.208 495.506 C 442.157 493.488 441.152 492.38 441.003 490.85 C 440.716 487.999 443.691 485.524 445.287 484.252 C 456.543 475.308 465.451 471.755 465.451 471.755 C 472.315 469.022 482.11 465.206 495.877 463.512 C 495.877 463.507 504.682 462.428 518.194 464.202 Z M 609.715 513.741 C 615.261 515.182 617.986 516.822 622.591 521.393 C 628.187 526.909 630.566 532.026 631.061 539.53 C 632.003 553.691 625.467 563.728 611.948 568.995 C 609.571 569.939 608.184 570.088 602.489 570.088 C 596.347 570.088 595.506 569.989 592.287 568.697 C 577.133 562.734 569.604 548.126 574.357 533.816 C 576.189 528.25 580.695 521.889 584.954 518.809 C 592.729 513.246 601.197 511.506 609.715 513.741 Z M 500.361 470.96" style="fill: rgb(238, 238, 238);" transform="matrix(0.999931, 0.011774, -0.011774, 0.999931, 7.547088, -6.792332)" bx:origin="0.755 1.037"/>
  <path class="cls-1" d="M 660.929 604.422 C 660.235 604.521 658.601 604.968 657.214 605.366 C 655.828 605.764 653.055 606.558 651.024 607.155 C 648.994 607.751 645.874 608.745 644.092 609.391 C 634.336 612.918 623.094 616.049 605.959 620.074 C 595.312 622.608 586.695 624.297 574.017 626.484 C 561.19 628.67 543.709 630.658 530.685 631.453 C 490.622 633.789 448.872 632.993 415.049 629.267 C 402.025 627.825 379.987 624.049 371.22 621.763 C 369.735 621.366 364.733 620.124 360.077 618.981 C 355.423 617.838 346.656 615.253 340.564 613.266 C 334.276 611.179 328.679 609.589 327.54 609.589 C 322.687 609.589 318.23 614.011 318.231 618.732 C 318.231 621.018 321.45 631.404 327.84 649.589 C 329.871 655.403 330.614 657.489 332.794 663.253 C 333.19 664.198 334.725 668.023 336.311 671.7 C 340.917 682.731 345.276 694.111 351.666 711.699 C 354.044 718.259 356.272 724.42 356.619 725.364 C 356.965 726.309 358.105 729.438 359.096 732.32 C 360.086 735.202 361.226 738.333 361.572 739.277 C 362.266 741.165 365.684 750.605 369.745 762.132 C 371.133 766.107 372.569 770.133 372.966 771.077 C 373.361 772.021 375.145 776.94 376.977 782.009 C 381.386 794.331 385.15 804.07 387.577 809.586 C 389.807 814.703 391.541 819.076 391.541 819.723 C 391.541 821.312 393.918 825.535 395.8 827.324 C 398.821 830.156 400.554 830.604 412.539 831.448 C 431.604 832.74 468.104 832.393 510.644 830.405 C 521.539 829.858 539.069 829.56 557.74 829.51 L 587.503 829.411 L 589.039 828.318 C 591.218 826.728 592.208 825.138 594.089 820.021 C 594.981 817.536 596.021 814.753 596.366 813.809 C 598.001 809.437 600.773 801.684 602.259 797.163 C 607.705 780.766 612.013 768.543 615.478 759.401 C 616.865 755.822 618.499 751.599 619.093 749.959 C 620.133 747.277 622.707 740.618 627.51 728.346 C 628.401 726.01 631.273 718.755 633.847 712.196 C 638.502 700.47 640.532 695.204 643.552 687.352 C 644.394 685.166 646.078 680.694 647.365 677.414 C 648.652 674.134 650.385 669.414 651.277 666.979 C 654.693 657.589 664.15 633.64 668.458 623.552 C 671.676 615.999 671.924 615.253 671.725 612.57 C 671.328 607.006 666.623 603.479 660.929 604.422 Z M 535.641 662.359 C 539.37 663.169 544.139 665.753 546.456 669.24 C 548.339 672.172 551.38 681.937 551.975 686.209 C 553.065 694.458 553.669 697.935 557.73 700.321 C 559.81 701.563 561.83 701.876 565.248 701.628 C 571.785 701.13 572.508 698.492 574.042 693.519 C 574.439 691.084 576.844 682.831 578.577 677.513 C 580.708 670.855 584.668 666.036 590.016 663.601 C 591.798 662.806 593.384 662.557 596.801 662.557 C 600.664 662.508 601.936 662.871 604.512 663.835 C 608.558 665.355 610.025 667.774 612.549 671.6 C 617.404 679.054 618.543 684.073 618.098 695.452 C 617.801 703.103 617.653 703.749 616.118 707.376 C 615.227 709.463 612.702 715.426 610.524 720.644 C 604.037 735.947 590.719 769.785 585.915 783.251 C 585.024 785.685 583.736 789.164 583.044 790.952 C 582.35 792.741 580.666 797.163 579.231 800.79 C 577.795 804.417 576.409 807.498 576.062 807.698 C 575.716 807.896 556.6 808.145 533.423 808.194 C 510.246 808.244 480.681 808.492 467.656 808.79 C 443.539 809.337 414.172 808.84 412.389 807.847 C 411.101 807.2 406.346 795.92 397.628 773.064 C 396.984 771.276 396.143 769.039 395.745 768.095 C 393.913 763.424 392.228 758.954 388.514 748.965 C 386.285 742.954 384.105 737.041 383.61 735.798 C 383.114 734.556 381.728 730.879 380.489 727.6 C 379.25 724.321 378.013 721.091 377.765 720.396 C 377.517 719.7 376.774 717.811 376.18 716.172 C 375.586 714.531 374.892 712.742 374.644 712.196 C 374.396 711.65 372.762 707.426 370.93 702.755 L 367.661 694.309 L 367.71 688.992 C 367.759 686.06 368.105 682.433 368.501 680.893 C 370.134 674.681 374.493 668.619 378.752 666.582 C 382.367 664.843 387.289 663.974 391.548 664.172 C 395.461 664.321 396.951 664.67 400.293 666.333 C 402.136 667.596 403.83 669.062 405.345 670.706 C 407.822 673.787 409.852 678.707 410.694 683.477 C 411.884 690.483 414.41 694.558 418.916 696.794 C 421.739 698.135 426.841 698.88 429.813 698.333 C 433.428 697.637 438.528 692.819 439.568 689.091 C 439.815 688.148 440.26 685.265 440.557 682.682 C 441.251 676.619 443.131 672.023 446.648 668.693 C 450.163 665.365 453.788 662.935 458.721 663.01 C 465.52 663.01 469.874 664.396 474.232 669.017 C 477.303 672.246 478.655 676.132 479.731 680.495 C 480.771 687.452 481.712 691.676 482.603 693.515 C 485.13 698.433 495.282 701.563 500.729 699.078 C 505.136 697.092 506.968 693.713 507.661 686.358 C 508.551 677.265 513.355 668.072 519.247 664.297 C 523.259 661.713 530.638 660.868 535.641 662.359 Z" style="fill: rgb(238, 238, 238);" transform="matrix(0.999931, 0.011774, -0.011774, 0.999931, 7.546748, -6.791336)" bx:origin="0.742 0.146"/>
  <path class="cls-1" d="M-139.53,822.88" transform="translate(-664 -397.26)"/>
  <path class="cls-1" d="M-147.15,921.93" transform="translate(-664 -397.26)"/>
  <path class="cls-1" d="M-265,1193.72" transform="translate(-664 -397.26)"/>
</svg>